sfk_cyclingleg_states
version=1
nRows=5
nColumns=53
inDegrees=yes

# SIMM Motion File Header:
name sfk_cyclingleg_states
datacolumns 53
datarows 5
otherdata 1
range 0.21635799 0.21969799
endheader
time	/jointset/bb/crank_angle/value	/jointset/bb/crank_angle/speed	/jointset/spindle/pedal_angle_r/value	/jointset/spindle/pedal_angle_r/speed	/jointset/ground_pelvis/pelvis_tilt/value	/jointset/ground_pelvis/pelvis_tilt/speed	/jointset/ground_pelvis/pelvis_list/value	/jointset/ground_pelvis/pelvis_list/speed	/jointset/ground_pelvis/pelvis_rotation/value	/jointset/ground_pelvis/pelvis_rotation/speed	/jointset/ground_pelvis/pelvis_tx/value	/jointset/ground_pelvis/pelvis_tx/speed	/jointset/ground_pelvis/pelvis_ty/value	/jointset/ground_pelvis/pelvis_ty/speed	/jointset/ground_pelvis/pelvis_tz/value	/jointset/ground_pelvis/pelvis_tz/speed	/jointset/hip_r/hip_angle_r/value	/jointset/hip_r/hip_angle_r/speed	/jointset/hip_r/hip_adduction_r/value	/jointset/hip_r/hip_adduction_r/speed	/jointset/hip_r/hip_rotation_r/value	/jointset/hip_r/hip_rotation_r/speed	/jointset/knee_r/knee_angle_r/value	/jointset/knee_r/knee_angle_r/speed	/jointset/knee_r/tib_tx_r/value	/jointset/knee_r/tib_tx_r/speed	/jointset/knee_r/tib_ty_r/value	/jointset/knee_r/tib_ty_r/speed	/jointset/tib_pat_r/pat_angle_r/value	/jointset/tib_pat_r/pat_angle_r/speed	/jointset/tib_pat_r/pat_tx_r/value	/jointset/tib_pat_r/pat_tx_r/speed	/jointset/tib_pat_r/pat_ty_r/value	/jointset/tib_pat_r/pat_ty_r/speed	/jointset/ankle_r/ankle_angle_r/value	/jointset/ankle_r/ankle_angle_r/speed	/jointset/subtalar_r/subtalar_angle_r/value	/jointset/subtalar_r/subtalar_angle_r/speed	/jointset/mtp_r/mtp_angle_r/value	/jointset/mtp_r/mtp_angle_r/speed	/forceset/bifemlh_r/activation	/forceset/bifemlh_r/fiber_length	/forceset/bifemsh_r/activation	/forceset/bifemsh_r/fiber_length	/forceset/glut_max2_r/activation	/forceset/glut_max2_r/fiber_length	/forceset/vas_int_r/activation	/forceset/vas_int_r/fiber_length	/forceset/med_gas_r/activation	/forceset/med_gas_r/fiber_length	/forceset/tib_ant_r/activation	/forceset/tib_ant_r/fiber_length
      0.21635799	   -114.01670741	   -480.13863232	    122.38701596	    530.14578026	      0.00000000	      0.00000000	     -0.00000000	     -0.00000000	      0.00000000	      0.00000000	     -0.00000000	     -0.00000000	      0.00000000	      0.00000000	      0.00000000	      0.00000000	     55.00801544	   -203.78003705	      4.37977589	      0.37126783	      0.12482136	     19.23503460	    -67.88134660	    248.54525329	      0.00513458	     -0.00363546	     -0.47844693	      0.08045761	     17.50546631	     -2.01076239	      0.04041159	      0.07802049	     -0.02265401	     -0.00740283	     21.68103050	      4.59532689	      0.00000000	      0.00000000	     -0.00000000	     -0.00000000	     -0.04252632	      0.12989173	     -0.04252632	      0.16182403	     -0.04252632	      0.14157522	     -0.04252632	      0.13503436	     -0.01467023	      0.14848676	     -0.01467023	      0.11600457
      0.21712114	   -114.38312727	   -480.13863232	    122.79145983	    529.78019194	      0.00000000	      0.00000000	     -0.00000000	     -0.00000000	      0.00000000	      0.00000000	     -0.00000000	     -0.00000000	      0.00000000	      0.00000000	      0.00000000	      0.00000000	     54.85253441	   -203.68784825	      4.38005496	      0.36011490	      0.13948593	     19.19630193	    -67.69193847	    247.83490402	      0.00513169	     -0.00393733	     -0.47838565	      0.08013579	     17.50391265	     -2.06096627	      0.04047100	      0.07768217	     -0.02265968	     -0.00745887	     21.68463639	      4.85433212	      0.00000000	      0.00000000	     -0.00000000	     -0.00000000	     -0.04262457	      0.12983116	     -0.04262457	      0.16195581	     -0.04262457	      0.14147379	     -0.04262457	      0.13490802	     -0.01467023	      0.14848676	     -0.01467023	      0.11600457
      0.21806791	   -114.83770501	   -480.13863232	    123.29281885	    529.31928181	      0.00000000	      0.00000000	     -0.00000000	     -0.00000000	      0.00000000	      0.00000000	     -0.00000000	     -0.00000000	      0.00000000	      0.00000000	      0.00000000	      0.00000000	     54.65974937	   -203.56039771	      4.38038939	      0.34637323	      0.15763712	     19.14717662	    -67.45772147	    246.93581758	      0.00512779	     -0.00430781	     -0.47830997	      0.07973087	     17.50193177	     -2.12362932	      0.04054435	      0.07725899	     -0.02266678	     -0.00752449	     21.68938340	      5.17303454	      0.00000000	      0.00000000	     -0.00000000	     -0.00000000	     -0.04274647	      0.12975581	     -0.04274647	      0.16204774	     -0.04274647	      0.14134773	     -0.04274647	      0.13475148	     -0.01467023	      0.14848676	     -0.01467023	      0.11600457
      0.21877833	   -115.17880518	   -480.13863232	    123.66873343	    528.96794581	      0.00000000	      0.00000000	     -0.00000000	     -0.00000000	      0.00000000	      0.00000000	     -0.00000000	     -0.00000000	      0.00000000	      0.00000000	      0.00000000	      0.00000000	     54.51517284	   -203.45517688	      4.38063182	      0.33613251	      0.17122633	     19.10951447	    -67.28253691	    246.24805340	      0.00512463	     -0.00458282	     -0.47825344	      0.07942288	     17.50040632	     -2.17089770	      0.04059912	      0.07693890	     -0.02267214	     -0.00757088	     21.69314278	      5.41022395	      0.00000000	      0.00000000	     -0.00000000	     -0.00000000	     -0.04283794	      0.12969913	     -0.04283794	      0.16216690	     -0.04283794	      0.14125296	     -0.04283794	      0.13463416	     -0.01467023	      0.14848676	     -0.01467023	      0.11600457
      0.21969799	   -115.62037320	   -480.13863232	    124.15499638	    528.50596585	      0.00000000	      0.00000000	     -0.00000000	     -0.00000000	      0.00000000	      0.00000000	     -0.00000000	     -0.00000000	      0.00000000	      0.00000000	      0.00000000	      0.00000000	     54.32812890	   -203.30665702	      4.38093489	      0.32296783	      0.18877792	     19.05971385	    -67.05648623	    245.34080082	      0.00512025	     -0.00493495	     -0.47818058	      0.07901887	     17.49838157	     -2.23236496	      0.04066969	      0.07652123	     -0.02267913	     -0.00762735	     21.69825863	      5.71471602	      0.00000000	      0.00000000	     -0.00000000	     -0.00000000	     -0.04295634	      0.12962556	     -0.04295634	      0.16226234	     -0.04295634	      0.14113007	     -0.04295634	      0.13448248	     -0.01467023	      0.14848676	     -0.01467023	      0.11600457
